<svg xmlns="http://www.w3.org/2000/svg" width="512" height="512" viewBox="0 0 512 512" fill="none">
<title>B04-E Vector Database and Embeddings — self-reviewed production candidate v03</title>
<desc>Editable vector reconstruction traced and self-checked against the locked approved reference. Database is pure white, vector badge is light grey, outlines are ink, details are sage, and the vector path is ember. Recoloured 2026-07-24 to the Grounded AI Practice palette. viewBox normalised from the original 1254x1254 to the set's standard 512x512 via a single wrapping scale(0.4082935) transform on 2026-07-24 — no individual path coordinates were altered, so the rendered shape is pixel-identical to before, just consistent with the rest of the icon set's coordinate space.</desc>
<g transform="scale(0.4082935)">
<g id="database-white" fill="#FFFFFF">
<path d="M 200.00 751.00 L 200.00 917.00 L 203.00 925.00 L 213.00 935.00 L 236.00 950.00 L 261.00 962.00 L 301.00 976.00 L 350.00 987.00 L 388.00 993.00 L 435.00 998.00 L 497.00 1001.00 L 600.00 998.00 L 603.00 994.00 L 604.00 997.00 L 611.00 997.00 L 611.00 993.00 L 587.00 975.00 L 566.00 953.00 L 551.00 934.00 L 545.00 930.00 L 545.00 926.00 L 538.00 920.00 L 538.00 916.00 L 533.00 914.00 L 533.00 908.00 L 516.00 877.00 L 508.00 857.00 L 499.00 828.00 L 497.00 815.00 L 471.00 815.00 L 467.00 817.00 L 456.00 817.00 L 455.00 813.00 L 411.00 810.00 L 379.00 805.00 L 370.00 805.00 L 367.00 807.00 L 366.00 803.00 L 339.00 799.00 L 315.00 793.00 L 307.00 794.00 L 306.00 791.00 L 281.00 785.00 L 244.00 772.00 L 204.00 751.00 Z"/>
<path d="M 200.00 537.00 L 200.00 702.00 L 202.00 707.00 L 211.00 716.00 L 231.00 729.00 L 264.00 744.00 L 295.00 754.00 L 332.00 763.00 L 416.00 776.00 L 468.00 780.00 L 489.00 780.00 L 491.00 778.00 L 491.00 735.00 L 497.00 695.00 L 510.00 652.00 L 528.00 614.00 L 533.00 607.00 L 533.00 603.00 L 487.00 603.00 L 486.00 600.00 L 443.00 599.00 L 408.00 595.00 L 392.00 596.00 L 391.00 593.00 L 364.00 589.00 L 356.00 589.00 L 354.00 591.00 L 353.00 587.00 L 345.00 587.00 L 343.00 589.00 L 342.00 585.00 L 315.00 580.00 L 281.00 570.00 L 275.00 570.00 L 274.00 568.00 L 255.00 562.00 L 226.00 549.00 L 222.00 549.00 L 220.00 551.00 L 217.00 544.00 L 205.00 537.00 Z"/>
<path d="M 855.00 339.00 L 851.00 339.00 L 838.00 348.00 L 836.00 354.00 L 830.00 353.00 L 812.00 362.00 L 811.00 366.00 L 805.00 365.00 L 784.00 373.00 L 781.00 376.00 L 718.00 391.00 L 717.00 395.00 L 715.00 393.00 L 707.00 393.00 L 691.00 396.00 L 690.00 400.00 L 687.00 398.00 L 657.00 401.00 L 656.00 405.00 L 652.00 405.00 L 651.00 403.00 L 630.00 404.00 L 629.00 407.00 L 606.00 406.00 L 605.00 410.00 L 603.00 410.00 L 602.00 407.00 L 568.00 409.00 L 485.00 409.00 L 449.00 407.00 L 448.00 410.00 L 447.00 406.00 L 401.00 403.00 L 399.00 405.00 L 395.00 405.00 L 394.00 401.00 L 344.00 393.00 L 337.00 393.00 L 335.00 395.00 L 334.00 391.00 L 321.00 388.00 L 314.00 388.00 L 313.00 390.00 L 312.00 386.00 L 277.00 376.00 L 272.00 376.00 L 269.00 373.00 L 254.00 369.00 L 253.00 367.00 L 224.00 353.00 L 218.00 353.00 L 216.00 348.00 L 204.00 340.00 L 200.00 340.00 L 200.00 491.00 L 209.00 502.00 L 246.00 523.00 L 287.00 538.00 L 329.00 549.00 L 377.00 558.00 L 436.00 565.00 L 467.00 567.00 L 501.00 567.00 L 502.00 565.00 L 517.00 565.00 L 518.00 567.00 L 562.00 566.00 L 597.00 530.00 L 630.00 505.00 L 667.00 485.00 L 668.00 483.00 L 672.00 483.00 L 703.00 471.00 L 704.00 469.00 L 720.00 466.00 L 721.00 462.00 L 728.00 462.00 L 730.00 460.00 L 731.00 462.00 L 738.00 462.00 L 755.00 459.00 L 756.00 455.00 L 760.00 455.00 L 761.00 457.00 L 788.00 456.00 L 789.00 452.00 L 802.00 452.00 L 803.00 456.00 L 832.00 457.00 L 836.00 454.00 L 838.00 459.00 L 855.00 457.00 Z"/>
<path d="M 200.00 273.00 L 200.00 289.00 L 206.00 294.00 L 206.00 301.00 L 213.00 309.00 L 237.00 326.00 L 273.00 342.00 L 308.00 353.00 L 353.00 363.00 L 409.00 371.00 L 475.00 376.00 L 508.00 376.00 L 509.00 374.00 L 576.00 376.00 L 621.00 373.00 L 667.00 368.00 L 733.00 356.00 L 788.00 339.00 L 823.00 322.00 L 837.00 312.00 L 848.00 301.00 L 854.00 291.00 L 856.00 283.00 L 855.00 268.00 L 852.00 268.00 L 849.00 265.00 L 850.00 259.00 L 841.00 249.00 L 819.00 234.00 L 778.00 216.00 L 755.00 209.00 L 750.00 209.00 L 749.00 211.00 L 748.00 207.00 L 728.00 202.00 L 720.00 203.00 L 719.00 200.00 L 675.00 192.00 L 667.00 192.00 L 666.00 194.00 L 662.00 194.00 L 661.00 190.00 L 629.00 189.00 L 628.00 186.00 L 571.00 182.00 L 542.00 182.00 L 541.00 184.00 L 488.00 182.00 L 439.00 185.00 L 438.00 189.00 L 431.00 189.00 L 430.00 187.00 L 395.00 190.00 L 394.00 194.00 L 389.00 192.00 L 380.00 192.00 L 332.00 201.00 L 282.00 215.00 L 237.00 235.00 L 219.00 247.00 L 208.00 258.00 L 204.00 264.00 L 204.00 272.00 Z"/>
</g><g id="vector-badge-background" fill="#F9F9F9">
<path d="M 787.00 490.00 L 786.00 492.00 L 772.00 491.00 L 771.00 493.00 L 763.00 492.00 L 762.00 494.00 L 756.00 493.00 L 755.00 495.00 L 750.00 494.00 L 749.00 496.00 L 744.00 495.00 L 743.00 497.00 L 740.00 496.00 L 739.00 498.00 L 730.00 498.00 L 729.00 500.00 L 723.00 500.00 L 722.00 502.00 L 719.00 501.00 L 718.00 503.00 L 713.00 503.00 L 696.00 511.00 L 693.00 510.00 L 690.00 513.00 L 686.00 513.00 L 683.00 516.00 L 667.00 524.00 L 664.00 524.00 L 662.00 527.00 L 655.00 531.00 L 652.00 531.00 L 647.00 536.00 L 637.00 541.00 L 634.00 545.00 L 629.00 547.00 L 626.00 551.00 L 624.00 551.00 L 609.00 566.00 L 607.00 566.00 L 604.00 569.00 L 604.00 571.00 L 591.00 583.00 L 591.00 585.00 L 582.00 594.00 L 577.00 603.00 L 573.00 606.00 L 572.00 610.00 L 569.00 612.00 L 563.00 624.00 L 561.00 625.00 L 561.00 628.00 L 557.00 632.00 L 557.00 635.00 L 549.00 648.00 L 549.00 652.00 L 546.00 659.00 L 544.00 660.00 L 544.00 664.00 L 542.00 665.00 L 542.00 670.00 L 538.00 682.00 L 536.00 683.00 L 537.00 686.00 L 534.00 690.00 L 535.00 693.00 L 533.00 694.00 L 534.00 697.00 L 532.00 698.00 L 533.00 702.00 L 532.00 706.00 L 530.00 707.00 L 531.00 712.00 L 529.00 713.00 L 530.00 718.00 L 528.00 719.00 L 529.00 725.00 L 527.00 726.00 L 528.00 735.00 L 526.00 736.00 L 526.00 779.00 L 528.00 781.00 L 528.00 797.00 L 530.00 798.00 L 529.00 803.00 L 531.00 804.00 L 530.00 808.00 L 532.00 809.00 L 531.00 813.00 L 533.00 814.00 L 532.00 818.00 L 535.00 822.00 L 535.00 829.00 L 538.00 833.00 L 540.00 839.00 L 539.00 842.00 L 541.00 843.00 L 541.00 847.00 L 544.00 851.00 L 544.00 855.00 L 546.00 856.00 L 546.00 860.00 L 553.00 871.00 L 553.00 875.00 L 556.00 877.00 L 559.00 886.00 L 562.00 888.00 L 562.00 891.00 L 564.00 892.00 L 565.00 896.00 L 570.00 901.00 L 571.00 905.00 L 579.00 914.00 L 579.00 916.00 L 583.00 919.00 L 587.00 926.00 L 595.00 933.00 L 595.00 935.00 L 619.00 958.00 L 621.00 958.00 L 629.00 966.00 L 631.00 966.00 L 637.00 972.00 L 639.00 972.00 L 652.00 982.00 L 656.00 983.00 L 657.00 985.00 L 662.00 986.00 L 664.00 989.00 L 703.00 1007.00 L 738.00 1017.00 L 749.00 1019.00 L 754.00 1018.00 L 755.00 1020.00 L 761.00 1019.00 L 762.00 1021.00 L 770.00 1020.00 L 771.00 1022.00 L 787.00 1021.00 L 789.00 1023.00 L 803.00 1023.00 L 804.00 1021.00 L 820.00 1022.00 L 821.00 1020.00 L 829.00 1021.00 L 831.00 1019.00 L 837.00 1020.00 L 838.00 1018.00 L 843.00 1019.00 L 857.00 1016.00 L 890.00 1006.00 L 921.00 992.00 L 923.00 989.00 L 932.00 986.00 L 936.00 982.00 L 940.00 981.00 L 941.00 979.00 L 949.00 975.00 L 955.00 969.00 L 960.00 967.00 L 995.00 934.00 L 995.00 932.00 L 1000.00 928.00 L 1000.00 926.00 L 1011.00 914.00 L 1011.00 912.00 L 1013.00 911.00 L 1022.00 897.00 L 1023.00 893.00 L 1025.00 892.00 L 1040.00 862.00 L 1040.00 858.00 L 1042.00 857.00 L 1042.00 853.00 L 1044.00 852.00 L 1045.00 845.00 L 1047.00 844.00 L 1048.00 835.00 L 1051.00 831.00 L 1051.00 825.00 L 1053.00 824.00 L 1052.00 821.00 L 1054.00 820.00 L 1053.00 817.00 L 1055.00 816.00 L 1055.00 807.00 L 1057.00 806.00 L 1056.00 801.00 L 1058.00 800.00 L 1057.00 795.00 L 1059.00 793.00 L 1058.00 787.00 L 1060.00 785.00 L 1059.00 773.00 L 1061.00 772.00 L 1061.00 743.00 L 1059.00 740.00 L 1060.00 729.00 L 1058.00 727.00 L 1059.00 720.00 L 1057.00 718.00 L 1057.00 708.00 L 1055.00 707.00 L 1056.00 703.00 L 1054.00 702.00 L 1055.00 698.00 L 1053.00 697.00 L 1051.00 682.00 L 1048.00 673.00 L 1046.00 672.00 L 1046.00 667.00 L 1044.00 661.00 L 1042.00 660.00 L 1042.00 656.00 L 1040.00 655.00 L 1039.00 649.00 L 1036.00 646.00 L 1036.00 642.00 L 1032.00 634.00 L 1029.00 632.00 L 1029.00 629.00 L 1026.00 623.00 L 1024.00 622.00 L 1023.00 618.00 L 1021.00 617.00 L 1020.00 613.00 L 1016.00 609.00 L 1012.00 601.00 L 1009.00 599.00 L 1007.00 594.00 L 992.00 578.00 L 992.00 576.00 L 974.00 558.00 L 972.00 558.00 L 966.00 551.00 L 964.00 551.00 L 956.00 543.00 L 954.00 543.00 L 952.00 540.00 L 950.00 540.00 L 937.00 530.00 L 934.00 530.00 L 932.00 527.00 L 925.00 525.00 L 923.00 522.00 L 916.00 520.00 L 905.00 513.00 L 896.00 511.00 L 893.00 508.00 L 888.00 508.00 L 883.00 506.00 L 882.00 504.00 L 876.00 504.00 L 866.00 499.00 L 859.00 499.00 L 858.00 497.00 L 854.00 498.00 L 853.00 496.00 L 844.00 496.00 L 843.00 494.00 L 835.00 495.00 L 830.00 494.00 L 829.00 492.00 L 820.00 493.00 L 819.00 491.00 L 804.00 492.00 L 803.00 490.00 Z"/>
</g><g id="navy-structure" fill="#27221E" fill-rule="evenodd">
<path d="M 200.00 752.00 L 202.00 751.00 L 213.00 758.00 L 252.00 776.00 L 289.00 788.00 L 331.00 798.00 L 369.00 804.00 L 370.00 805.00 L 407.00 809.00 L 408.00 810.00 L 438.00 812.00 L 439.00 813.00 L 451.00 813.00 L 452.00 814.00 L 496.00 816.00 L 506.00 853.00 L 508.00 856.00 L 514.00 874.00 L 522.00 889.00 L 523.00 893.00 L 537.00 917.00 L 553.00 939.00 L 570.00 959.00 L 585.00 974.00 L 612.00 996.00 L 604.00 998.00 L 576.00 999.00 L 575.00 1000.00 L 487.00 1001.00 L 486.00 1000.00 L 462.00 1000.00 L 461.00 999.00 L 433.00 998.00 L 432.00 997.00 L 422.00 997.00 L 421.00 996.00 L 412.00 996.00 L 411.00 995.00 L 388.00 993.00 L 387.00 992.00 L 374.00 991.00 L 345.00 985.00 L 340.00 985.00 L 302.00 976.00 L 262.00 962.00 L 234.00 948.00 L 210.00 931.00 L 203.00 923.00 L 200.00 914.00 Z M 200.00 538.00 L 203.00 537.00 L 229.00 552.00 L 261.00 565.00 L 300.00 577.00 L 304.00 577.00 L 340.00 586.00 L 345.00 586.00 L 375.00 592.00 L 388.00 593.00 L 389.00 594.00 L 415.00 596.00 L 416.00 597.00 L 426.00 597.00 L 427.00 598.00 L 438.00 598.00 L 439.00 599.00 L 479.00 600.00 L 480.00 601.00 L 534.00 601.00 L 535.00 602.00 L 523.00 622.00 L 513.00 643.00 L 501.00 677.00 L 497.00 693.00 L 494.00 714.00 L 493.00 715.00 L 492.00 732.00 L 491.00 733.00 L 491.00 778.00 L 492.00 779.00 L 490.00 781.00 L 484.00 781.00 L 483.00 780.00 L 462.00 780.00 L 461.00 779.00 L 425.00 777.00 L 424.00 776.00 L 406.00 775.00 L 405.00 774.00 L 376.00 771.00 L 328.00 762.00 L 296.00 754.00 L 268.00 745.00 L 238.00 732.00 L 214.00 717.00 L 206.00 710.00 L 202.00 705.00 L 200.00 700.00 Z M 788.00 489.00 L 818.00 490.00 L 819.00 491.00 L 842.00 493.00 L 865.00 498.00 L 884.00 504.00 L 904.00 512.00 L 931.00 526.00 L 948.00 537.00 L 974.00 558.00 L 992.00 576.00 L 1010.00 598.00 L 1025.00 621.00 L 1038.00 646.00 L 1045.00 663.00 L 1056.00 700.00 L 1059.00 722.00 L 1060.00 723.00 L 1061.00 750.00 L 1062.00 751.00 L 1061.00 781.00 L 1060.00 782.00 L 1058.00 803.00 L 1054.00 818.00 L 1054.00 822.00 L 1044.00 853.00 L 1039.00 865.00 L 1021.00 899.00 L 1011.00 914.00 L 994.00 935.00 L 971.00 958.00 L 942.00 980.00 L 914.00 996.00 L 891.00 1006.00 L 867.00 1014.00 L 840.00 1020.00 L 817.00 1022.00 L 816.00 1023.00 L 765.00 1022.00 L 720.00 1013.00 L 692.00 1003.00 L 665.00 990.00 L 641.00 975.00 L 620.00 959.00 L 595.00 935.00 L 582.00 920.00 L 570.00 904.00 L 557.00 883.00 L 546.00 861.00 L 535.00 831.00 L 528.00 802.00 L 526.00 779.00 L 525.00 778.00 L 526.00 727.00 L 527.00 726.00 L 527.00 720.00 L 531.00 699.00 L 541.00 666.00 L 551.00 643.00 L 565.00 618.00 L 575.00 603.00 L 591.00 583.00 L 619.00 555.00 L 634.00 543.00 L 658.00 527.00 L 687.00 512.00 L 694.00 510.00 L 699.00 507.00 L 735.00 496.00 L 750.00 493.00 L 763.00 492.00 L 764.00 491.00 L 787.00 490.00 Z M 855.00 340.00 L 855.00 459.00 L 853.00 461.00 L 847.00 459.00 L 824.00 457.00 L 823.00 456.00 L 784.00 455.00 L 783.00 456.00 L 771.00 456.00 L 770.00 457.00 L 761.00 457.00 L 760.00 458.00 L 741.00 460.00 L 715.00 466.00 L 693.00 473.00 L 668.00 483.00 L 652.00 491.00 L 618.00 512.00 L 593.00 532.00 L 567.00 558.00 L 561.00 566.00 L 557.00 567.00 L 486.00 568.00 L 485.00 567.00 L 462.00 567.00 L 461.00 566.00 L 434.00 565.00 L 433.00 564.00 L 424.00 564.00 L 423.00 563.00 L 415.00 563.00 L 414.00 562.00 L 384.00 559.00 L 383.00 558.00 L 365.00 556.00 L 330.00 549.00 L 285.00 537.00 L 250.00 524.00 L 226.00 512.00 L 215.00 505.00 L 201.00 491.00 L 201.00 359.00 L 200.00 358.00 L 200.00 341.00 L 201.00 340.00 L 219.00 352.00 L 249.00 367.00 L 285.00 380.00 L 319.00 389.00 L 323.00 389.00 L 347.00 395.00 L 377.00 399.00 L 378.00 400.00 L 384.00 400.00 L 385.00 401.00 L 419.00 404.00 L 420.00 405.00 L 459.00 407.00 L 460.00 408.00 L 478.00 408.00 L 479.00 409.00 L 574.00 409.00 L 575.00 408.00 L 594.00 408.00 L 595.00 407.00 L 609.00 407.00 L 610.00 406.00 L 621.00 406.00 L 622.00 405.00 L 651.00 403.00 L 652.00 402.00 L 674.00 400.00 L 675.00 399.00 L 704.00 395.00 L 729.00 390.00 L 738.00 387.00 L 742.00 387.00 L 750.00 384.00 L 754.00 384.00 L 789.00 373.00 L 809.00 365.00 L 833.00 353.00 L 853.00 339.00 Z M 200.00 276.00 L 205.00 264.00 L 212.00 255.00 L 222.00 246.00 L 235.00 237.00 L 254.00 227.00 L 273.00 219.00 L 314.00 206.00 L 359.00 196.00 L 377.00 194.00 L 390.00 191.00 L 412.00 189.00 L 413.00 188.00 L 431.00 187.00 L 432.00 186.00 L 470.00 184.00 L 471.00 183.00 L 491.00 183.00 L 492.00 182.00 L 565.00 182.00 L 566.00 183.00 L 586.00 183.00 L 587.00 184.00 L 613.00 185.00 L 614.00 186.00 L 624.00 186.00 L 625.00 187.00 L 634.00 187.00 L 635.00 188.00 L 666.00 191.00 L 730.00 203.00 L 776.00 216.00 L 812.00 231.00 L 826.00 239.00 L 837.00 247.00 L 848.00 258.00 L 852.00 264.00 L 855.00 271.00 L 856.00 281.00 L 852.00 293.00 L 843.00 305.00 L 834.00 313.00 L 818.00 324.00 L 784.00 340.00 L 744.00 353.00 L 704.00 362.00 L 699.00 362.00 L 674.00 367.00 L 668.00 367.00 L 667.00 368.00 L 661.00 368.00 L 660.00 369.00 L 625.00 372.00 L 624.00 373.00 L 581.00 375.00 L 580.00 376.00 L 556.00 376.00 L 555.00 377.00 L 496.00 377.00 L 495.00 376.00 L 471.00 376.00 L 470.00 375.00 L 428.00 373.00 L 427.00 372.00 L 418.00 372.00 L 417.00 371.00 L 408.00 371.00 L 407.00 370.00 L 377.00 367.00 L 325.00 357.00 L 277.00 343.00 L 248.00 331.00 L 232.00 322.00 L 217.00 311.00 L 209.00 303.00 L 202.00 292.00 L 200.00 286.00 Z M 195.00 226.00 L 181.00 241.00 L 174.00 252.00 L 168.00 268.00 L 168.00 273.00 L 167.00 274.00 L 167.00 921.00 L 169.00 931.00 L 173.00 940.00 L 186.00 956.00 L 201.00 968.00 L 217.00 978.00 L 243.00 991.00 L 260.00 998.00 L 300.00 1011.00 L 354.00 1023.00 L 392.00 1028.00 L 393.00 1029.00 L 410.00 1030.00 L 411.00 1031.00 L 444.00 1033.00 L 445.00 1034.00 L 459.00 1034.00 L 460.00 1035.00 L 478.00 1035.00 L 479.00 1036.00 L 579.00 1035.00 L 580.00 1034.00 L 617.00 1032.00 L 618.00 1031.00 L 626.00 1031.00 L 627.00 1030.00 L 634.00 1030.00 L 635.00 1029.00 L 642.00 1029.00 L 643.00 1028.00 L 650.00 1028.00 L 660.00 1026.00 L 681.00 1036.00 L 714.00 1047.00 L 745.00 1054.00 L 768.00 1056.00 L 769.00 1057.00 L 783.00 1057.00 L 784.00 1058.00 L 807.00 1058.00 L 808.00 1057.00 L 822.00 1057.00 L 823.00 1056.00 L 846.00 1054.00 L 877.00 1047.00 L 909.00 1036.00 L 939.00 1022.00 L 971.00 1002.00 L 995.00 983.00 L 1019.00 959.00 L 1039.00 934.00 L 1059.00 902.00 L 1075.00 867.00 L 1086.00 833.00 L 1092.00 805.00 L 1093.00 791.00 L 1094.00 790.00 L 1094.00 779.00 L 1095.00 778.00 L 1095.00 733.00 L 1094.00 732.00 L 1094.00 722.00 L 1093.00 721.00 L 1093.00 714.00 L 1092.00 713.00 L 1092.00 707.00 L 1090.00 701.00 L 1089.00 691.00 L 1082.00 665.00 L 1076.00 648.00 L 1058.00 609.00 L 1044.00 586.00 L 1021.00 556.00 L 993.00 528.00 L 960.00 503.00 L 920.00 481.00 L 890.00 470.00 L 888.00 468.00 L 888.00 273.00 L 887.00 272.00 L 886.00 262.00 L 881.00 249.00 L 874.00 238.00 L 863.00 226.00 L 843.00 211.00 L 815.00 196.00 L 790.00 186.00 L 758.00 176.00 L 705.00 164.00 L 660.00 158.00 L 659.00 157.00 L 633.00 155.00 L 632.00 154.00 L 621.00 154.00 L 620.00 153.00 L 608.00 153.00 L 607.00 152.00 L 573.00 151.00 L 572.00 150.00 L 493.00 150.00 L 492.00 151.00 L 471.00 151.00 L 470.00 152.00 L 441.00 153.00 L 440.00 154.00 L 429.00 154.00 L 428.00 155.00 L 393.00 158.00 L 392.00 159.00 L 379.00 160.00 L 378.00 161.00 L 339.00 167.00 L 297.00 177.00 L 258.00 190.00 L 222.00 207.00 Z"/>
</g><g id="grey-details" fill="#D5E2E1">
<path d="M 808.00 919.00 L 800.00 923.00 L 795.00 928.00 L 791.00 937.00 L 791.00 948.00 L 796.00 958.00 L 802.00 963.00 L 808.00 966.00 L 821.00 966.00 L 829.00 962.00 L 836.00 954.00 L 839.00 943.00 L 838.00 935.00 L 833.00 926.00 L 828.00 922.00 L 817.00 918.00 Z"/>
<path d="M 909.00 882.00 L 901.00 885.00 L 893.00 893.00 L 890.00 900.00 L 890.00 912.00 L 895.00 922.00 L 901.00 927.00 L 909.00 930.00 L 919.00 930.00 L 928.00 926.00 L 933.00 921.00 L 937.00 914.00 L 938.00 902.00 L 935.00 894.00 L 928.00 886.00 L 919.00 882.00 Z"/>
<path d="M 295.00 874.00 L 296.00 885.00 L 301.00 891.00 L 360.00 911.00 L 370.00 910.00 L 376.00 905.00 L 378.00 901.00 L 378.00 891.00 L 372.00 883.00 L 338.00 871.00 L 335.00 871.00 L 313.00 863.00 L 307.00 863.00 L 302.00 865.00 L 297.00 870.00 Z"/>
<path d="M 955.00 819.00 L 945.00 823.00 L 938.00 830.00 L 935.00 837.00 L 935.00 850.00 L 939.00 858.00 L 944.00 863.00 L 953.00 867.00 L 964.00 867.00 L 973.00 863.00 L 978.00 858.00 L 982.00 850.00 L 983.00 840.00 L 980.00 831.00 L 975.00 825.00 L 971.00 822.00 L 963.00 819.00 Z"/>
<path d="M 599.00 733.00 L 590.00 737.00 L 583.00 745.00 L 581.00 750.00 L 581.00 763.00 L 584.00 770.00 L 591.00 777.00 L 601.00 781.00 L 608.00 781.00 L 618.00 777.00 L 625.00 770.00 L 628.00 763.00 L 628.00 750.00 L 624.00 742.00 L 619.00 737.00 L 610.00 733.00 Z"/>
<path d="M 714.00 700.00 L 706.00 703.00 L 699.00 709.00 L 695.00 716.00 L 694.00 728.00 L 698.00 738.00 L 704.00 744.00 L 713.00 748.00 L 723.00 748.00 L 731.00 745.00 L 739.00 737.00 L 742.00 730.00 L 742.00 718.00 L 738.00 710.00 L 729.00 702.00 L 722.00 700.00 Z"/>
<path d="M 295.00 658.00 L 296.00 668.00 L 302.00 675.00 L 356.00 693.00 L 359.00 695.00 L 363.00 696.00 L 370.00 695.00 L 374.00 693.00 L 379.00 686.00 L 380.00 682.00 L 379.00 675.00 L 377.00 671.00 L 369.00 665.00 L 314.00 647.00 L 303.00 648.00 L 298.00 652.00 Z"/>
<path d="M 645.00 623.00 L 639.00 625.00 L 630.00 633.00 L 626.00 642.00 L 626.00 651.00 L 629.00 659.00 L 635.00 666.00 L 643.00 670.00 L 653.00 671.00 L 664.00 667.00 L 670.00 661.00 L 674.00 652.00 L 674.00 641.00 L 671.00 634.00 L 663.00 626.00 L 656.00 623.00 Z"/>
<path d="M 752.00 574.00 L 744.00 577.00 L 736.00 585.00 L 733.00 593.00 L 733.00 603.00 L 735.00 609.00 L 743.00 618.00 L 753.00 622.00 L 761.00 622.00 L 769.00 619.00 L 777.00 612.00 L 781.00 603.00 L 781.00 593.00 L 777.00 584.00 L 768.00 576.00 L 762.00 574.00 Z"/>
<path d="M 296.00 437.00 L 295.00 440.00 L 296.00 450.00 L 301.00 456.00 L 305.00 458.00 L 363.00 477.00 L 373.00 475.00 L 379.00 468.00 L 380.00 465.00 L 379.00 456.00 L 376.00 451.00 L 370.00 447.00 L 313.00 428.00 L 307.00 428.00 L 302.00 430.00 Z"/>
</g><g id="coral-vector" fill="#F15E4B">
<path d="M 998.00 650.00 L 992.00 649.00 L 986.00 651.00 L 981.00 651.00 L 975.00 653.00 L 970.00 653.00 L 964.00 655.00 L 959.00 655.00 L 929.00 661.00 L 927.00 663.00 L 927.00 667.00 L 949.00 687.00 L 950.00 690.00 L 896.00 746.00 L 887.00 742.00 L 872.00 742.00 L 861.00 746.00 L 852.00 754.00 L 848.00 760.00 L 845.00 769.00 L 845.00 783.00 L 843.00 785.00 L 793.00 810.00 L 791.00 812.00 L 777.00 800.00 L 766.00 796.00 L 753.00 795.00 L 752.00 796.00 L 747.00 796.00 L 737.00 800.00 L 726.00 809.00 L 720.00 819.00 L 717.00 829.00 L 717.00 839.00 L 720.00 849.00 L 662.00 883.00 L 652.00 878.00 L 640.00 878.00 L 631.00 882.00 L 625.00 889.00 L 622.00 898.00 L 623.00 908.00 L 626.00 914.00 L 634.00 921.00 L 644.00 924.00 L 652.00 923.00 L 660.00 919.00 L 664.00 915.00 L 668.00 908.00 L 669.00 903.00 L 668.00 895.00 L 726.00 862.00 L 728.00 862.00 L 733.00 867.00 L 742.00 872.00 L 754.00 875.00 L 766.00 874.00 L 778.00 869.00 L 786.00 863.00 L 795.00 849.00 L 795.00 846.00 L 797.00 842.00 L 796.00 824.00 L 850.00 796.00 L 862.00 806.00 L 874.00 810.00 L 888.00 809.00 L 899.00 804.00 L 907.00 796.00 L 913.00 783.00 L 913.00 777.00 L 914.00 776.00 L 913.00 775.00 L 913.00 767.00 L 911.00 761.00 L 908.00 757.00 L 908.00 754.00 L 960.00 699.00 L 984.00 722.00 L 988.00 723.00 L 991.00 721.00 L 996.00 676.00 L 997.00 675.00 L 998.00 658.00 L 999.00 657.00 Z"/>
</g>
</g></svg>